De Bende van Oss (2011) 720p MKV DTS Eng NL Subs
.
[IMG]http://img696.imageshack.us/img696/6186/bvok.jpg[/IMG]
.
Nederland
Misdaad / Drama
111 minuten

geregisseerd door AndrÚ van Duren
met Sylvia Hoeks, Frank Lammers en Marcel Musters

Oss, jaren '30. Johanna van Heesch wil breken met de misdaad die haar omringt. Haar echtgenoot Ties valt, wanneer hij weer is vrijgelaten uit de gevangenis, terug in zijn oude gedrag. Hoe harder Johanna probeert te ontsnappen van de gruweldaden gepleegd door De Bende van Oss, hoe verder ze wegzakt in oplichting, prostitutie, doodslag en moord.

Vanaf 17 januari te huur
Vanaf 22 februari te koop op DVD en Blu-Ray
. 
http://www.moviemeter.nl/film/75445
.
PLOT
.
Johanna wants to change her life and quit the criminal gangs of the town of Oss in the 30ties of the 20th century. The harder she tries, the more she is involved. 
. 
http://www.imdb.com/title/tt1714193/
.
INFO
.
Source: BD25 Retail
Video: 1280x720
Audio: Dutch DTS
Subs: Dutch, English, Dutch FHI
.
Enjoy
.
Format                           : Matroska
Format version                   : Version 2
File size                        : 5.17 GiB
Duration                         : 1h 51mn
Overall bit rate mode            : Variable
Overall bit rate                 : 6 633 Kbps
Encoded date                     : UTC 2012-01-15 08:27:01
Writing application              : mkvmerge v5.2.0 ('I can't explain') built on Dec 18 2011 18:12:03
Writing library                  : libebml v1.2.3 + libmatroska v1.3.0

Video
ID                               : 1
Format                           : AVC
Format/Info                      : Advanced Video Codec
Format profile                   : High@L4.1
Format settings, CABAC           : Yes
Format settings, ReFrames        : 3 frames
Codec ID                         : V_MPEG4/ISO/AVC
Duration                         : 1h 51mn
Bit rate mode                    : Variable
Bit rate                         : 5 102 Kbps
Maximum bit rate                 : 24.0 Mbps
Width                            : 1 280 pixels
Height                           : 720 pixels
Display aspect ratio             : 16:9
Frame rate                       : 24.000 fps
Color space                      : YUV
Chroma subsampling               : 4:2:0
Bit depth                        : 8 bits
Scan type                        : Progressive
Bits/(Pixel*Frame)               : 0.231
Stream size                      : 3.89 GiB (75%)
Writing library                  : x264 core 120 r2120 0c7dab9
Encoding settings                : cabac=1 / ref=3 / deblock=1:0:0 / analyse=0x3:0x113 / me=umh / subme=7 / psy=1 / psy_rd=1.00:0.25 / mixed_ref=1 / me_range=16 / chroma_me=1 / trellis=1 / 8x8dct=1 / cqm=0 / deadzone=21,11 / fast_pskip=1 / chroma_qp_offset=-4 / threads=12 / sliced_threads=0 / slices=4 / nr=0 / decimate=1 / interlaced=0 / bluray_compat=1 / constrained_intra=0 / bframes=3 / b_pyramid=1 / b_adapt=1 / b_bias=0 / direct=3 / weightb=1 / open_gop=1 / weightp=0 / keyint=24 / keyint_min=2 / scenecut=40 / intra_refresh=0 / rc_lookahead=24 / rc=2pass / mbtree=1 / bitrate=5102 / ratetol=1.0 / qcomp=0.60 / qpmin=0 / qpmax=69 / qpstep=4 / cplxblur=20.0 / qblur=0.5 / vbv_maxrate=24000 / vbv_bufsize=24000 / nal_hrd=vbr / ip_ratio=1.40 / aq=1:1.00
Default                          : Yes
Forced                           : No

Audio
ID                               : 2
Format                           : DTS
Format/Info                      : Digital Theater Systems
Codec ID                         : A_DTS
Duration                         : 1h 51mn
Bit rate mode                    : Constant
Bit rate                         : 1 510 Kbps
Channel(s)                       : 6 channels
Channel positions                : Front: L C R, Side: L R, LFE
Sampling rate                    : 48.0 KHz
Bit depth                        : 24 bits
Compression mode                 : Lossy
Stream size                      : 1.18 GiB (23%)
Default                          : Yes
Forced                           : No

Text #1
ID                               : 3
Format                           : PGS
Muxing mode                      : zlib
Codec ID                         : S_HDMV/PGS
Codec ID/Info                    : The same subtitle format used on BDs/HD-DVDs
Title                            : Nederlands
Language                         : Dutch
Default                          : Yes
Forced                           : No

Text #2
ID                               : 4
Format                           : PGS
Muxing mode                      : zlib
Codec ID                         : S_HDMV/PGS
Codec ID/Info                    : The same subtitle format used on BDs/HD-DVDs
Title                            : English
Language                         : English
Default                          : No
Forced                           : No

Text #3
ID                               : 5
Format                           : PGS
Muxing mode                      : zlib
Codec ID                         : S_HDMV/PGS
Codec ID/Info                    : The same subtitle format used on BDs/HD-DVDs
Title                            : Nederlands voor doven en slechthorenden
Language                         : Dutch
Default                          : No
Forced                           : No





.

